<svg width="228" height="74" viewBox="0 0 228 74" fill="none" xmlns="http://www.w3.org/2000/svg">
<path d="M92.4952 30.6705H96.6635V48.0069H92.4952V30.6705Z" fill="black" fill-opacity="0.8"/>
<path d="M107.378 30.1845C113.11 30.1845 116.712 33.3289 116.712 39.3371C116.712 43.1729 115.239 45.8574 112.681 47.2665L115.127 47.0805V51.0338L105.249 49.716L105.499 48.3755C100.899 47.7296 98.0668 44.6538 98.0668 39.3371C98.0668 33.3028 101.669 30.1845 107.378 30.1845ZM112.496 39.3371C112.496 35.8241 110.661 33.8573 107.375 33.8573C104.089 33.8573 102.277 35.8926 102.277 39.3371C102.277 42.7815 104.111 44.794 107.375 44.794C110.639 44.794 112.496 42.7815 112.496 39.3371Z" fill="black" fill-opacity="0.8"/>
<path d="M122.552 34.3661H117.048V30.6673H132.225V34.3661H126.721V48.0036H122.552V34.3661Z" fill="black" fill-opacity="0.8"/>
<path d="M146.133 38.7597H156.621V48.0069H153.54V46.2259C152.271 47.5437 150.458 48.4668 147.604 48.4668C141.962 48.4668 138.385 45.3453 138.385 39.3371C138.385 33.3289 141.965 30.2073 147.674 30.2073C151.865 30.2073 154.901 31.8937 156.238 35.1555L152.274 36.5874C151.526 34.8293 150.007 33.9062 147.674 33.9062C144.366 33.9062 142.601 35.8926 142.601 39.3371C142.601 42.7815 144.369 44.7679 147.674 44.7679C150.142 44.7679 151.775 43.6361 152.408 41.6236H146.133V38.7565V38.7597Z" fill="black" fill-opacity="0.8"/>
<path d="M158.184 48.0069V30.6705H167.518C171.482 30.6705 174.474 32.3112 174.474 36.8646C174.474 39.9633 172.844 41.8356 170.667 42.7358L174.768 48.0069H169.717L166.591 43.6622H162.356V48.0069H158.184ZM162.353 34.3661V40.0057H167.563C169.308 40.0057 170.28 39.1283 170.28 37.3017C170.28 35.0837 168.877 34.3661 167.563 34.3661H162.353Z" fill="black" fill-opacity="0.8"/>
<path d="M184.326 30.1845C190.057 30.1845 193.66 33.3289 193.66 39.3371C193.66 45.3453 190.057 48.4896 184.326 48.4896C178.594 48.4896 175.014 45.3453 175.014 39.3371C175.014 33.3289 178.617 30.1845 184.326 30.1845ZM189.469 39.3371C189.469 35.8241 187.612 33.8573 184.326 33.8573C181.04 33.8573 179.205 35.8926 179.205 39.3371C179.205 42.7815 181.062 44.794 184.326 44.794C187.589 44.794 189.469 42.7815 189.469 39.3371Z" fill="black" fill-opacity="0.8"/>
<path d="M194.813 30.6705H198.982V41.3039C198.982 43.7763 200.705 44.7712 202.584 44.7712C204.464 44.7712 206.142 43.7763 206.142 41.3039V30.6705H210.333V40.8407C210.333 45.8117 207.411 48.4701 202.472 48.4701C197.534 48.4701 194.817 45.8117 194.817 40.8407V30.6705H194.813Z" fill="black" fill-opacity="0.8"/>
<path d="M211.915 30.6705H221C225.008 30.6705 228 32.7287 228 37.3506C228 41.9726 225.008 43.8709 221 43.8709H216.083V48.0101H211.915V30.6705ZM216.083 34.3661V40.1688H221.022C222.38 40.1688 223.832 39.6371 223.832 37.3735C223.832 35.1098 222.38 34.3694 221.022 34.3694H216.083V34.3661Z" fill="black" fill-opacity="0.8"/>
<path d="M74.3069 34.8456H50.6045L71.0944 22.7477L67.38 15.9892L46.7878 28.0807L58.6374 6.97368L52.011 3.28135L40.155 24.3949V0H32.723V24.1861L20.7648 3.27483L14.2438 7.06828L26.0934 28.0807L5.86246 16.2208L5.40856 16.2861L1.79007 22.7509C2.1289 22.7933 2.44216 22.9466 2.72985 23.126C16.1713 31.5349 30.121 36.7635 39.0362 50.8511C43.5146 57.9292 47.3025 65.8031 51.6434 73.0378C51.8192 73.3313 51.9694 73.651 52.011 73.9967L58.6342 70.2066L46.7878 49.1942L67.38 61.2823L71.1008 54.6316L50.6045 42.426H74.3069V34.8423V34.8456Z" fill="#B8DCF4"/>
<path d="M22.1968 42.0215H0V49.2985L0.300475 49.6051H20.02L4.78523 65.1508L10.0787 70.5523L26.103 54.201C26.1094 54.3412 26.1158 54.4782 26.1158 54.6283V74H33.5477V53.8096C33.5477 45.6584 28.4301 42.0248 22.1968 42.0248V42.0215Z" fill="#B8DCF4"/>
</svg>
