<svg width="148" height="48" viewBox="0 0 148 48" fill="none" xmlns="http://www.w3.org/2000/svg">
<path d="M60.0408 19.8944H62.7465V31.1396H60.0408V19.8944Z" fill="white" fill-opacity="0.8"/>
<path d="M69.7017 19.5791C73.4221 19.5791 75.7606 21.6187 75.7606 25.5159C75.7606 28.0041 74.804 29.7453 73.1441 30.6593L74.7314 30.5387V33.103L68.3198 32.2482L68.4817 31.3787C65.4958 30.9598 63.6574 28.9646 63.6574 25.5159C63.6574 21.6018 65.9959 19.5791 69.7017 19.5791ZM73.0237 25.5159C73.0237 23.2373 71.8327 21.9615 69.6997 21.9615C67.5666 21.9615 66.3901 23.2817 66.3901 25.5159C66.3901 27.7502 67.5811 29.0556 69.6997 29.0556C71.8182 29.0556 73.0237 27.7502 73.0237 25.5159Z" fill="white" fill-opacity="0.8"/>
<path d="M79.5515 22.2915H75.9785V19.8923H85.8303V22.2915H82.2573V31.1375H79.5515V22.2915Z" fill="white" fill-opacity="0.8"/>
<path d="M94.8584 25.1414H101.666V31.1396H99.6661V29.9844C98.8423 30.8392 97.6658 31.4379 95.8129 31.4379C92.1506 31.4379 89.8288 29.4131 89.8288 25.5159C89.8288 21.6187 92.1527 19.594 95.8586 19.594C98.5788 19.594 100.55 20.6878 101.417 22.8035L98.8444 23.7324C98.3589 22.592 97.3733 21.9932 95.8586 21.9932C93.711 21.9932 92.5656 23.2817 92.5656 25.5159C92.5656 27.7502 93.7131 29.0387 95.8586 29.0387C97.4604 29.0387 98.5207 28.3045 98.9316 26.9991H94.8584V25.1393V25.1414Z" fill="white" fill-opacity="0.8"/>
<path d="M102.681 31.1396V19.8944H108.74C111.313 19.8944 113.255 20.9586 113.255 23.9122C113.255 25.9222 112.197 27.1366 110.784 27.7205L113.446 31.1396H110.167L108.138 28.3214H105.389V31.1396H102.681ZM105.387 22.2915V25.9497H108.769C109.902 25.9497 110.533 25.3805 110.533 24.1957C110.533 22.757 109.622 22.2915 108.769 22.2915H105.387Z" fill="white" fill-opacity="0.8"/>
<path d="M119.65 19.5791C123.37 19.5791 125.709 21.6187 125.709 25.5159C125.709 29.4131 123.37 31.4527 119.65 31.4527C115.93 31.4527 113.606 29.4131 113.606 25.5159C113.606 21.6187 115.944 19.5791 119.65 19.5791ZM122.989 25.5159C122.989 23.2373 121.783 21.9615 119.65 21.9615C117.517 21.9615 116.326 23.2817 116.326 25.5159C116.326 27.7502 117.531 29.0556 119.65 29.0556C121.768 29.0556 122.989 27.7502 122.989 25.5159Z" fill="white" fill-opacity="0.8"/>
<path d="M126.458 19.8944H129.164V26.7917C129.164 28.3955 130.282 29.0408 131.502 29.0408C132.722 29.0408 133.811 28.3955 133.811 26.7917V19.8944H136.532V26.4913C136.532 29.7157 134.635 31.44 131.429 31.44C128.224 31.44 126.46 29.7157 126.46 26.4913V19.8944H126.458Z" fill="white" fill-opacity="0.8"/>
<path d="M137.559 19.8944H143.456C146.058 19.8944 148 21.2294 148 24.2274C148 27.2255 146.058 28.4568 143.456 28.4568H140.265V31.1417H137.559V19.8944ZM140.265 22.2915V26.0555H143.47C144.352 26.0555 145.294 25.7106 145.294 24.2423C145.294 22.7739 144.352 22.2936 143.47 22.2936H140.265V22.2915Z" fill="white" fill-opacity="0.8"/>
<path d="M48.2343 22.6025H32.8485L46.149 14.7552L43.7379 10.3714L30.371 18.2145L38.0629 4.52347L33.7615 2.12844L26.0655 15.8237V0H21.2413V15.6883L13.4789 2.12421L9.24598 4.58483L16.9378 18.2145L3.80546 10.5216L3.51082 10.5639L1.16197 14.7573C1.38192 14.7849 1.58526 14.8843 1.77201 15.0007C10.4972 20.4551 19.5523 23.8466 25.3393 32.9845C28.2463 37.5757 30.7051 42.6831 33.5229 47.3759C33.637 47.5663 33.7345 47.7736 33.7615 47.9979L38.0608 45.5394L30.371 31.9097L43.7379 39.7507L46.1531 35.4367L32.8485 27.5196H48.2343V22.6004V22.6025Z" fill="#B8DCF4"/>
<path d="M14.4085 27.2572H0V31.9774L0.195045 32.1763H12.9954L3.1062 42.26L6.54232 45.7637L16.944 35.1574C16.9482 35.2484 16.9523 35.3372 16.9523 35.4346V48H21.7766V34.9035C21.7766 29.6163 18.4546 27.2593 14.4085 27.2593V27.2572Z" fill="#B8DCF4"/>
</svg>
